<svg data-v-fde0c5aa="" xmlns="http://www.w3.org/2000/svg" viewBox="0 0 300 300" class="iconAbove"><!----><defs data-v-fde0c5aa=""><!----></defs><rect data-v-fde0c5aa="" fill="transparent" x="0" y="0" width="300px" height="300px" class="logo-background-square"></rect><defs data-v-fde0c5aa=""><!----></defs><g data-v-fde0c5aa="" id="c87718e5-74e5-4905-bf4d-f57b6a9d19a2" fill="#000000" transform="matrix(2.922333240509033,0,0,2.922333240509033,17.954366703344412,168.30763218781226)"><path d="M5.60 3.78Q9.48 3.78 9.48 7.01L9.48 7.01Q9.48 8.51 8.50 9.30Q7.52 10.08 5.60 10.08L5.60 10.08L3.96 10.08L3.96 13.02L0.70 13.02L0.70 3.78L5.60 3.78ZM5.07 7.84Q5.67 7.84 5.94 7.63Q6.22 7.42 6.22 6.97L6.22 6.97Q6.22 6.52 5.94 6.31Q5.67 6.10 5.07 6.10L5.07 6.10L3.96 6.10L3.96 7.84L5.07 7.84ZM17.89 11.30Q18.13 11.30 18.24 11.24L18.24 11.24L17.99 12.88Q17.51 13.16 16.95 13.16L16.95 13.16Q16.10 13.16 15.53 12.86Q14.95 12.56 14.76 11.98L14.76 11.98Q14.43 12.53 13.81 12.84Q13.19 13.16 12.26 13.16L12.26 13.16Q11.17 13.16 10.64 12.73Q10.11 12.31 10.11 11.49L10.11 11.49Q10.11 10.61 10.74 10.09Q11.37 9.56 12.84 9.24L12.84 9.24L14.22 8.93L14.22 8.65Q14.22 8.33 14.06 8.15Q13.90 7.97 13.59 7.97L13.59 7.97Q13.26 7.97 13.06 8.15Q12.87 8.34 12.85 8.82L12.85 8.82L10.19 8.41Q10.30 7.21 11.20 6.54Q12.10 5.88 13.78 5.88L13.78 5.88Q15.64 5.88 16.53 6.59Q17.42 7.31 17.42 8.76L17.42 8.76L17.42 10.72Q17.42 11.30 17.89 11.30L17.89 11.30ZM13.62 11.41Q13.89 11.41 14.06 11.23Q14.22 11.06 14.22 10.72L14.22 10.72L14.22 10.05L13.76 10.19Q13.47 10.28 13.30 10.46Q13.13 10.65 13.13 10.92L13.13 10.92Q13.13 11.16 13.27 11.28Q13.41 11.41 13.62 11.41L13.62 11.41ZM23.69 5.88Q24.18 5.88 24.42 6.05L24.42 6.05L24.15 8.68Q24.02 8.58 23.79 8.52Q23.55 8.46 23.27 8.46L23.27 8.46Q22.62 8.46 22.25 8.76Q21.88 9.07 21.88 9.66L21.88 9.66L21.88 13.02L18.66 13.02L18.66 6.02L21.56 6.02L21.63 7.77Q22.13 5.88 23.69 5.88L23.69 5.88ZM30.37 10.86L30.51 12.68Q30.16 12.89 29.56 13.03Q28.97 13.16 28.42 13.16L28.42 13.16Q26.91 13.16 26.17 12.58Q25.42 12.00 25.42 10.67L25.42 10.67L25.42 8.19L24.35 8.19L24.35 6.02L25.42 6.02L25.42 4.54L28.64 3.64L28.64 6.02L30.41 6.02L30.41 8.19L28.64 8.19L28.64 10.16Q28.64 10.64 28.85 10.84Q29.05 11.05 29.48 11.05L29.48 11.05Q30.00 11.05 30.37 10.86L30.37 10.86ZM39.02 6.02L36.96 12.24Q36.48 13.65 35.92 14.47Q35.36 15.29 34.58 15.66Q33.80 16.03 32.65 16.03L32.65 16.03Q31.35 16.03 30.49 15.57L30.49 15.57L31.08 13.54Q31.30 13.66 31.57 13.72Q31.84 13.78 32.33 13.78L32.33 13.78Q32.77 13.78 32.99 13.69Q33.21 13.61 33.29 13.40L33.29 13.40L33.33 13.29L32.45 11.23L30.45 6.02L33.96 6.02L34.59 9.63L34.86 11.27L35.17 9.62L35.87 6.02L39.02 6.02ZM47.70 3.78Q51.58 3.78 51.58 7.01L51.58 7.01Q51.58 8.51 50.60 9.30Q49.62 10.08 47.70 10.08L47.70 10.08L46.06 10.08L46.06 13.02L42.80 13.02L42.80 3.78L47.70 3.78ZM47.17 7.84Q47.77 7.84 48.04 7.63Q48.31 7.42 48.31 6.97L48.31 6.97Q48.31 6.52 48.04 6.31Q47.77 6.10 47.17 6.10L47.17 6.10L46.06 6.10L46.06 7.84L47.17 7.84ZM59.58 9.30Q59.58 9.83 59.51 10.14L59.51 10.14L55.06 10.14Q55.13 10.65 55.36 10.84Q55.58 11.02 56.03 11.02L56.03 11.02Q56.71 11.02 56.87 10.42L56.87 10.42L59.46 11.12Q59.22 12.12 58.29 12.64Q57.36 13.16 56.03 13.16L56.03 13.16Q54.04 13.16 53.01 12.22Q51.98 11.28 51.98 9.52L51.98 9.52Q51.98 7.78 53.00 6.83Q54.01 5.88 55.86 5.88L55.86 5.88Q57.67 5.88 58.63 6.80Q59.58 7.73 59.58 9.30L59.58 9.30ZM55.87 8.01Q55.51 8.01 55.31 8.22Q55.12 8.43 55.06 8.95L55.06 8.95L56.57 8.95Q56.53 8.47 56.37 8.24Q56.21 8.01 55.87 8.01L55.87 8.01ZM64.05 5.88Q65.91 5.88 66.93 6.83Q67.96 7.78 67.96 9.52L67.96 9.52Q67.96 11.26 66.93 12.21Q65.91 13.16 64.05 13.16L64.05 13.16Q62.19 13.16 61.17 12.21Q60.14 11.26 60.14 9.52L60.14 9.52Q60.14 7.78 61.17 6.83Q62.19 5.88 64.05 5.88L64.05 5.88ZM64.05 8.05Q63.77 8.05 63.63 8.18Q63.49 8.30 63.43 8.61Q63.38 8.92 63.38 9.52L63.38 9.52Q63.38 10.12 63.43 10.43Q63.49 10.74 63.63 10.86Q63.77 10.99 64.05 10.99L64.05 10.99Q64.33 10.99 64.47 10.86Q64.61 10.74 64.67 10.43Q64.72 10.12 64.72 9.52L64.72 9.52Q64.72 8.92 64.67 8.61Q64.61 8.30 64.47 8.18Q64.33 8.05 64.05 8.05L64.05 8.05ZM73.99 5.88Q75.28 5.88 75.97 6.82Q76.66 7.76 76.66 9.48L76.66 9.48Q76.66 11.23 75.96 12.19Q75.25 13.16 73.98 13.16L73.98 13.16Q73.26 13.16 72.77 12.81Q72.28 12.46 72.00 11.84L72.00 11.84L72.00 15.96L68.78 15.96L68.78 6.02L71.61 6.02L71.69 7.66Q71.96 6.83 72.55 6.36Q73.15 5.88 73.99 5.88L73.99 5.88ZM72.69 10.89Q73.05 10.89 73.23 10.60Q73.42 10.30 73.42 9.52L73.42 9.52Q73.42 8.74 73.23 8.43Q73.05 8.13 72.69 8.13L72.69 8.13Q72.35 8.13 72.18 8.45Q72.00 8.76 72.00 9.46L72.00 9.46L72.00 9.58Q72.00 10.25 72.17 10.57Q72.34 10.89 72.69 10.89L72.69 10.89ZM80.78 3.22L80.78 10.23Q80.78 10.67 80.91 10.86Q81.03 11.05 81.35 11.05L81.35 11.05Q81.61 11.05 81.86 10.98L81.86 10.98L81.72 12.71Q81.47 12.91 80.96 13.03Q80.46 13.16 79.98 13.16L79.98 13.16Q78.68 13.16 78.12 12.60Q77.56 12.04 77.56 10.72L77.56 10.72L77.56 3.22L80.78 3.22ZM89.67 9.30Q89.67 9.83 89.60 10.14L89.60 10.14L85.15 10.14Q85.22 10.65 85.44 10.84Q85.67 11.02 86.11 11.02L86.11 11.02Q86.80 11.02 86.95 10.42L86.95 10.42L89.54 11.12Q89.31 12.12 88.38 12.64Q87.44 13.16 86.11 13.16L86.11 13.16Q84.13 13.16 83.10 12.22Q82.07 11.28 82.07 9.52L82.07 9.52Q82.07 7.78 83.08 6.83Q84.10 5.88 85.95 5.88L85.95 5.88Q87.75 5.88 88.71 6.80Q89.67 7.73 89.67 9.30L89.67 9.30ZM85.96 8.01Q85.60 8.01 85.40 8.22Q85.20 8.43 85.15 8.95L85.15 8.95L86.66 8.95Q86.62 8.47 86.46 8.24Q86.30 8.01 85.96 8.01L85.96 8.01Z"></path></g><defs data-v-fde0c5aa=""><linearGradient data-v-fde0c5aa="" gradientTransform="rotate(25)" id="0cc399a6-4ae9-489b-9230-dc602d9d28da" x1="0%" y1="0%" x2="100%" y2="0%"><stop data-v-fde0c5aa="" offset="0%" stop-color="#968ABF" stop-opacity="1"></stop><stop data-v-fde0c5aa="" offset="100%" stop-color="#E4A8AA" stop-opacity="1"></stop></linearGradient></defs><g data-v-fde0c5aa="" id="c711afa3-d735-4842-95d2-ad0cd7055273" stroke="none" fill="url(#0cc399a6-4ae9-489b-9230-dc602d9d28da)" transform="matrix(0.8541266322135925,0,0,0.8541266322135925,105.27451378087267,79.57654778515071)"><path d="M17.233 69.06h2.02v18.529a3.244 3.244 0 003.24 3.24h8.02a3.243 3.243 0 003.24-3.24v-38.19H48.81c3.95 0 7.172-3.177 7.246-7.109H22.704c-4.803 0-8.71 3.907-8.71 8.71v14.82a3.244 3.244 0 003.239 3.24zM21.414 33.638a7.852 7.852 0 006.022-.597 7.857 7.857 0 003.837-4.681 7.85 7.85 0 00-.597-6.021 7.866 7.866 0 00-2.395-2.713l-12.476 6.678a7.874 7.874 0 00.929 3.498 7.857 7.857 0 004.68 3.836zM15.988 11.653l-.135 11.223 9.549-5.111z"></path><circle cx="91.37" cy="40.552" r="2.364"></circle><path d="M57.989 10.126c.828-.029 1.475-.725 1.446-1.553s-.712-1.483-1.552-1.445l-7.648.272 1.693 5.428-5.682.198 1.34 4.281.358 1.143-1.794.062-1.918.066a1.5 1.5 0 00.051 2.999l.053-.001 7.647-.265-1.697-5.424 5.678-.198-1.337-4.286-.357-1.143 1.797-.064 1.922-.07zM81.595 52.618l-.197-5.683-4.282 1.34-1.142.357-.062-1.793-.066-1.919c-.028-.828-.734-1.494-1.551-1.447a1.5 1.5 0 00-1.447 1.551l.264 7.647 5.425-1.697.197 5.679 4.287-1.337 1.144-.357.064 1.797.068 1.923a1.5 1.5 0 001.498 1.446l.054-.001a1.5 1.5 0 001.446-1.553l-.272-7.646-5.428 1.693zM65.405 55.298l-1.198-1.199-1.799 1.798-1.798-1.798-1.198 1.199-1.199 1.199 1.797 1.797-1.797 1.798 2.397 2.398 1.798-1.798 1.799 1.798 1.198-1.199 1.199-1.199-1.797-1.798 1.797-1.797zM10.994 65.819c0 3.107 2.283 5.691 5.26 6.163v15.606c0 3.44 2.799 6.24 6.24 6.24h8.02c3.44 0 6.24-2.8 6.24-6.24v-35.19h12.057c5.65 0 10.247-4.597 10.247-10.247v-2.862H22.704c-6.457 0-11.71 5.253-11.71 11.71v14.82zm3-14.82c0-4.803 3.907-8.71 8.71-8.71h33.353c-.074 3.933-3.295 7.109-7.246 7.109H33.753v38.19a3.243 3.243 0 01-3.24 3.24h-8.02a3.243 3.243 0 01-3.24-3.24V69.06h-2.02a3.243 3.243 0 01-3.24-3.24V50.999zM13.054 6.171l-.121 10.06-.079 6.617c-.036 2.998-.233 5.625 1.236 8.37a10.84 10.84 0 006.456 5.292c1.044.315 2.112.473 3.173.473 1.772 0 3.527-.437 5.133-1.297a10.83 10.83 0 005.292-6.455 10.837 10.837 0 00-.823-8.308c-1.933-3.611-6.234-5.641-9.583-7.815L13.28 6.318c-.021-.014-.226-.121-.226-.147zm2.934 5.482l9.414 6.112-9.548 5.111.134-11.223zm12.293 7.973a7.866 7.866 0 012.395 2.713 7.855 7.855 0 01.597 6.021 7.86 7.86 0 01-3.837 4.681c-1.862.996-4 1.21-6.022.597a7.853 7.853 0 01-4.68-3.836 7.874 7.874 0 01-.929-3.498l12.476-6.678zM74.889 11.634c-4.813 0-9.15 3.046-10.792 7.579l2.82 1.021a8.508 8.508 0 017.972-5.601c4.662 0 8.455 3.793 8.455 8.455s-3.792 8.455-8.455 8.455H35.64v3h39.249c6.316 0 11.455-5.139 11.455-11.455s-5.139-11.454-11.455-11.454z"></path></g><!----></svg>