<svg width="24" height="24" fill="currentColor" viewBox="0 0 24 24" transform="" id="injected-svg"><!--Boxicons v3.0 https://boxicons.com | License  https://docs.boxicons.com/free--><path d="m18.25,9l.74-3.32c.26-1.19-.18-2.37-1.16-3.09-.98-.72-2.24-.79-3.3-.19l-2.53,1.45-2.53-1.45c-1.05-.6-2.32-.53-3.3.19-.98.72-1.42,1.91-1.16,3.09l.74,3.32h12.49Z"></path><path d="m20,22c.31,0,.61-.15.79-.39.19-.25.25-.57.17-.87l-2.66-9.74H5.69l-2.66,9.74c-.08.3-.02.62.17.87.19.25.48.39.79.39h4v-8h2v8h4v-8h2v8h4Z"></path></svg>